<?xml version="1.0" encoding="iso-8859-1"?>
<!-- Generator: Adobe Illustrator 16.0.0, SVG Export Plug-In . SVG Version: 6.00 Build 0)  -->
<!DOCTYPE svg PUBLIC "-//W3C//DTD SVG 1.1//EN" "http://www.w3.org/Graphics/SVG/1.1/DTD/svg11.dtd">
<svg version="1.1" id="Capa_1" xmlns="http://www.w3.org/2000/svg" xmlns:xlink="http://www.w3.org/1999/xlink" x="0px" y="0px"
	 width="95.939px" height="95.939px" viewBox="0 0 95.939 95.939" style="enable-background:new 0 0 95.939 95.939;"
	 xml:space="preserve">
<g>
	<path fill="#f56743" d="M62.819,47.97l32.533-32.534c0.781-0.781,0.781-2.047,0-2.828L83.333,0.586C82.958,0.211,82.448,0,81.919,0
		c-0.53,0-1.039,0.211-1.414,0.586L47.97,33.121L15.435,0.586c-0.75-0.75-2.078-0.75-2.828,0L0.587,12.608
		c-0.781,0.781-0.781,2.047,0,2.828L33.121,47.97L0.587,80.504c-0.781,0.781-0.781,2.047,0,2.828l12.02,12.021
		c0.375,0.375,0.884,0.586,1.414,0.586c0.53,0,1.039-0.211,1.414-0.586L47.97,62.818l32.535,32.535
		c0.375,0.375,0.884,0.586,1.414,0.586c0.529,0,1.039-0.211,1.414-0.586l12.02-12.021c0.781-0.781,0.781-2.048,0-2.828L62.819,47.97
		z"/>
</g>
</svg>